<?xml version="1.0" encoding="windows-1252"?>
<!-- Generator: Adobe Illustrator 11.0, SVG Export Plug-In . SVG Version: 6.0.0 Build 78)  -->
<!DOCTYPE svg PUBLIC "-//W3C//DTD SVG 1.0//EN" "http://www.w3.org/TR/2001/REC-SVG-20010904/DTD/svg10.dtd" [
	<!ENTITY ns_flows "http://ns.adobe.com/Flows/1.0/">
	<!ENTITY ns_svg "http://www.w3.org/2000/svg">
	<!ENTITY ns_xlink "http://www.w3.org/1999/xlink">
]>
<svg xmlns="http://www.w3.org/2000/svg" xmlns:xlink="http://www.w3.org/1999/xlink" xmlns:a="http://ns.adobe.com/AdobeSVGViewerExtensions/3.0/" width="600.0009766" height="400.0004883" viewBox="0 0 600.0009766 400.0004883" overflow="visible" enable-background="new 0 0 600.0009766 400.0004883" xml:space="preserve">
	<g id="Ebene_1">
		<rect id="rect149" fill="#5B92E5" width="600.0009766" height="400.0004883"/> 
		<g>
			<path fill-rule="evenodd" clip-rule="evenodd" fill="#FFFFFF" d="M381.6298828,122.5693359     c7.3847656,5.050293,20.5683594,17.2138672,18.8388672,31.625     C391.0546875,147.5727539,384.7119141,134.4223633,381.6298828,122.5693359L381.6298828,122.5693359z"/>
			<path fill-rule="evenodd" clip-rule="evenodd" fill="#FFFFFF" d="M379.0644531,137.4223633     c7.7148438,4.5151367,22.109375,16.0791016,21.4042969,30.5795898     C390.6123047,162.059082,382.9824219,149.0151367,379.0644531,137.4223633L379.0644531,137.4223633z"/>
			<path fill-rule="evenodd" clip-rule="evenodd" fill="#FFFFFF" d="M383.0771484,156.543457     c9.3027344,5.4453125,22.7285156,16.4599609,21.8740234,34.1269531     C397.4902344,185.1196289,385.0791016,165.1435547,383.0771484,156.543457L383.0771484,156.543457z"/>
			<path fill-rule="evenodd" clip-rule="evenodd" fill="#FFFFFF" d="M388.0097656,174.8330078     c7.1972656,6.1640625,19.6103516,21.550293,14.3476563,39.7456055     C396.3818359,207.4516602,387.4091797,183.8510742,388.0097656,174.8330078L388.0097656,174.8330078z"/>
			<path fill-rule="evenodd" clip-rule="evenodd" fill="#FFFFFF" d="M404.8007813,138.199707     c4.1806641,7.3242188,9.3964844,29.355957,1.1464844,42.1748047     C400.7978516,170.3608398,401.0234375,150.6147461,404.8007813,138.199707L404.8007813,138.199707z"/>
			<path fill-rule="evenodd" clip-rule="evenodd" fill="#FFFFFF" d="M415.0419922,160.6166992     c2.546875,9.5771484,4.2470703,33.7021484-9.1230469,45.9150391     C404.0585938,199.371582,409.2822266,169.9331055,415.0419922,160.6166992L415.0419922,160.6166992z"/>
			<path fill-rule="evenodd" clip-rule="evenodd" fill="#FFFFFF" d="M420.4355469,190.0786133     c-0.5253906,11.8574219-4.3408203,34.140625-22.8232422,42.7617188     C397.9794922,225.4458008,412.1386719,197.2382813,420.4355469,190.0786133L420.4355469,190.0786133z"/>
			<path fill-rule="evenodd" clip-rule="evenodd" fill="#FFFFFF" d="M388.0849609,193.2519531     c5.3935547,8.0825195,15.1464844,26.847168,3.8056641,45.1323242     C388.0664063,233.4516602,385.0595703,201.7680664,388.0849609,193.2519531L388.0849609,193.2519531z"/>
			<path fill-rule="evenodd" clip-rule="evenodd" fill="#FFFFFF" d="M418.1806641,221.4614258     c-3.4765625,12.046875-17.8613281,33.3613281-37.5185547,35.8320313     C384.0634766,248.7524414,406.3505859,226.2114258,418.1806641,221.4614258L418.1806641,221.4614258z"/>
			<path fill-rule="evenodd" clip-rule="evenodd" fill="#FFFFFF" d="M383.5185547,214.3911133     c3.9746094,11.9335938,7,33.2617188-11.1064453,46.1542969     C370.4111328,254.6352539,377.8896484,221.4614258,383.5185547,214.3911133L383.5185547,214.3911133z"/>
			<path fill-rule="evenodd" clip-rule="evenodd" fill="#FFFFFF" d="M372.4599609,234.9731445     c-1.1376953,14.765625-6.2773438,36.9228516-29.1376953,35.7382813     C343.2744141,264.6977539,364.7265625,239.159668,372.4599609,234.9731445L372.4599609,234.9731445z"/>
			<path fill-rule="evenodd" clip-rule="evenodd" fill="#FFFFFF" d="M404.6591797,253.5454102     c-8.4833984,9.7529297-25.0302734,26.28125-49.2539063,19.0839844     C358.9667969,267.0844727,395.6494141,252.8686523,404.6591797,253.5454102L404.6591797,253.5454102z"/>
			<path fill-rule="evenodd" clip-rule="evenodd" fill="#FFFFFF" d="M218.3710938,122.5693359     c-7.3759766,5.050293-20.5683594,17.2138672-18.8388672,31.625     C208.9560547,147.5727539,215.2988281,134.4223633,218.3710938,122.5693359L218.3710938,122.5693359z"/>
			<path fill-rule="evenodd" clip-rule="evenodd" fill="#FFFFFF" d="M220.9462891,137.4223633     c-7.7333984,4.5151367-22.109375,16.0791016-21.4140625,30.5795898     C209.3974609,162.059082,217.0273438,149.0151367,220.9462891,137.4223633L220.9462891,137.4223633z"/>
			<path fill-rule="evenodd" clip-rule="evenodd" fill="#FFFFFF" d="M216.9248047,156.543457     c-9.3027344,5.4453125-22.7294922,16.4599609-21.8652344,34.1269531     C202.5107422,185.1196289,214.9326172,165.1435547,216.9248047,156.543457L216.9248047,156.543457z"/>
			<path fill-rule="evenodd" clip-rule="evenodd" fill="#FFFFFF" d="M212.0009766,174.8330078     c-7.2167969,6.1640625-19.6103516,21.550293-14.3574219,39.7456055     C203.6191406,207.4516602,212.5927734,183.8510742,212.0009766,174.8330078L212.0009766,174.8330078z"/>
			<path fill-rule="evenodd" clip-rule="evenodd" fill="#FFFFFF" d="M195.1914063,138.199707     c-4.1630859,7.3242188-9.3867188,29.355957-1.1376953,42.1748047     C199.2128906,170.3608398,198.9775391,150.6147461,195.1914063,138.199707L195.1914063,138.199707z"/>
			<path fill-rule="evenodd" clip-rule="evenodd" fill="#FFFFFF" d="M184.9589844,160.6166992     c-2.5371094,9.5771484-4.2470703,33.7021484,9.1230469,45.9150391     C195.9423828,199.371582,190.7089844,169.9331055,184.9589844,160.6166992L184.9589844,160.6166992z"/>
			<path fill-rule="evenodd" clip-rule="evenodd" fill="#FFFFFF" d="M179.5654297,190.0786133     c0.5263672,11.8574219,4.3408203,34.140625,22.8320313,42.7617188     C202.03125,225.4458008,187.8623047,197.2382813,179.5654297,190.0786133L179.5654297,190.0786133z"/>
			<path fill-rule="evenodd" clip-rule="evenodd" fill="#FFFFFF" d="M211.9257813,193.2519531     c-5.4121094,8.0825195-15.1464844,26.847168-3.8056641,45.1323242     C211.9345703,233.4516602,214.9414063,201.7680664,211.9257813,193.2519531L211.9257813,193.2519531z"/>
			<path fill-rule="evenodd" clip-rule="evenodd" fill="#FFFFFF" d="M181.8203125,221.4614258     c3.4765625,12.046875,17.8525391,33.3613281,37.5185547,35.8320313     C215.9287109,248.7524414,193.640625,226.2114258,181.8203125,221.4614258L181.8203125,221.4614258z"/>
			<path fill-rule="evenodd" clip-rule="evenodd" fill="#FFFFFF" d="M216.4824219,214.3911133     c-3.9746094,11.9335938-7,33.2617188,11.1064453,46.1542969     C229.5996094,254.6352539,222.1113281,221.4614258,216.4824219,214.3911133L216.4824219,214.3911133z"/>
			<path fill-rule="evenodd" clip-rule="evenodd" fill="#FFFFFF" d="M227.5517578,234.9731445     c1.1367188,14.765625,6.2578125,36.9228516,29.1376953,35.7382813     C256.7265625,264.6977539,235.2753906,239.159668,227.5517578,234.9731445L227.5517578,234.9731445z"/>
			<path fill-rule="evenodd" clip-rule="evenodd" fill="#FFFFFF" d="M195.3408203,253.5454102     c8.4755859,9.7529297,25.0410156,26.28125,49.2548828,19.0839844     C241.0351563,267.0844727,204.3525391,252.8686523,195.3408203,253.5454102L195.3408203,253.5454102z"/>
			<path fill-rule="evenodd" clip-rule="evenodd" fill="#FFFFFF" d="M374.2636719,279.9477539     c-30.9140625-11.1621094-56.0292969-8.9726563-74.2587891-2.5078125     c-18.2285156-6.4648438-43.34375-8.6542969-74.2666016,2.5078125     c18.6601563,8.2128906,46.2753906,8.5888672,51.1240234-4.4814453     c5.6005859,0.5068359,11.5859375,1.7470703,17.8720703,4.0302734     c-11.9902344,5.1503906-20.4462891,11.9902344-24.9560547,17.2421875c0.375,0.9394531,2.4238281,2.8945313,3.4482422,3.2617188     c9.2363281-8.6455078,18.2373047-14.5078125,26.7783203-18.3613281     c8.5322266,3.8535156,17.5429688,9.7158203,26.7705078,18.3613281c1.0332031-0.3671875,3.0722656-2.3222656,3.4482422-3.2617188     c-4.5107422-5.2519531-12.9667969-12.0917969-24.9560547-17.2421875     c6.2861328-2.2832031,12.2802734-3.5234375,17.8710938-4.0302734     C327.9873047,288.5366211,355.59375,288.1606445,374.2636719,279.9477539L374.2636719,279.9477539z"/>
			<path fill-rule="evenodd" clip-rule="evenodd" fill="#FFFFFF" d="M300.0810547,256.6079102     c18.7265625,0,35.8173828-6.9433594,48.859375-18.3837891c-10.9931641-5.7822266-10.2412109-13.4130859-9.6777344-16.3955078     c0.5634766-2.9882813,2.6113281-1.6816406,3.9091797-1.6816406c6.9248047,0,14.1875-2.0488281,23.1523438-11.1914063     c10.0908203-10.3125,13.2666016-33.2177734-2.2470703-48.1435547c-16.734375-16.0957031-37.6875-7.9306641-35.9111328-3.3569336     c-3.3642578,0.1923828-10.6367188,3.3569336-12.4130859,6.7202148c-1.7753906,3.3544922-5.1201172,4.0078125-9.6962891,4.2895508     c-4.5761719,0.2773438-3.7304688,4.0097656-3.7304688,5.222168c0,1.2143555-1.1181641,2.0507813-1.7763672,1.8696289     c-2.5078125-0.71875-1.4931641,2.9833984-1.4931641,4.1015625c0,1.125-1.0244141,1.6816406-1.5878906,1.6816406     c-3.0917969,0-2.2275391,2.7954102-2.1523438,3.5400391c0.09375,0.7470703-0.1689453,2.0439453-1.2119141,2.6171875     c-0.9775391,0.5449219-2.1425781,2.9853516-2.1425781,4.8505859c0,3.359375,3.0820313,5.6894531,8.203125,9.5180664     c5.1396484,3.8203125,5.7880859,7.4609375,5.8916016,10.0683594c0.09375,2.6171875,0.3193359,6.8310547,1.484375,9.6123047     c1.3994141,3.3583984,1.2119141,9.5185547-5.8730469,9.7900391c-8.6630859,0.3486328-24.0722656,7.2773438-25.3789063,7.7480469     c-6.8964844,2.4707031-16.9785156,2.7060547-21.7333984-1.4941406     c-4.7539063-4.2001953-2.3203125-9.9833984,0.0849609-13.4365234c2.9033203,2.8935547,7.1972656,2.7109375,9.6210938,2.7998047     c2.4248047,0.09375,14.2636719-1.7714844,15.9462891-2.3251953c1.6816406-0.5634766,2.4238281-0.3759766,3.4482422,0     c4.5195313,1.6347656,10.7392578,2.1416016,13.2480469-6.5302734c2.5283203-8.6816406-3.4482422-6.2490234-4.2001953-5.8828125     c-0.7421875,0.3769531-1.7753906,0.2832031-1.390625-0.46875c1.0996094-2.1992188-0.5537109-1.9550781-1.4941406-2.0488281     c-2.4140625-0.2441406-5.5996094,2.3300781-6.6240234,3.2597656c-1.0244141,0.9404297-2.0478516,0.8457031-2.4238281,0.6582031     c-3.2138672-1.6015625-13.5302734-5.3183594-15.7578125-4.4765625c0.2636719-1.4052734-1.8789063-7.0947266-2.4335938-7.7382813     c0.5546875-4.7592773,0-14.7470703-1.3994141-18.3813477c-0.3007813-0.7797852-0.5644531-2.0576172,0.3662109-3.4506836     c2.4423828-3.6503906,9.1513672,0.2797852,12.7978516,0.1879883c4.359375-0.1152344,5.0449219-1.9238281,6.2382813-3.4130859     c1.15625-1.4257813,1.9921875-0.6201172,2.6123047-1.0268555c0.7890625-0.5073242,0.046875-1.53125,0.3291016-2.0952148     c0.2724609-0.559082,0.6015625-0.2792969,1.34375-0.9277344c0.7519531-0.6577148-0.0751953-2.0576172,0.2910156-2.6166992     c1.0712891-1.6118164,4.0029297-0.3222656,2.2363281-4.5688477c-0.9677734-2.3212891,0.3759766-4.8535156,1.6816406-6.5351563     c2.1142578-2.7133789,10.2705078-14.2026367-4.1152344-26.121582     c-13.71875-11.3691406-27.6054688-10.4482422-36.5605469-0.746582     c-8.9638672,9.7036133-4.4814453,23.8798828-3.5517578,27.612793c0.9394531,3.7324219-1.7480469,7.1152344-4.8486328,8.5859375     c-2.7900391,1.324707-9.6396484,5.9711914-13.9248047,10.081543c-0.09375,1.4780273-0.140625,2.9692383-0.140625,4.4682617     C225.9355469,223.402832,259.1318359,256.6079102,300.0810547,256.6079102L300.0810547,256.6079102z"/>
			<path fill-rule="evenodd" clip-rule="evenodd" fill="#FFFFFF" d="M228.8388672,172.5688477     c1.5410156-11.3999023,5.7412109-22.0810547,12.3466797-31.4257813c0.4414063-2.2387695,1.2119141-4.4980469,2.3867188-6.6757813     c-9.7353516,11.3930664-15.7011719,25.25-17.2421875,40.1567383     C227.1474609,173.9194336,227.9648438,173.2573242,228.8388672,172.5688477L228.8388672,172.5688477z"/>
			<path fill-rule="evenodd" clip-rule="evenodd" fill="#FFFFFF" d="M365.1308594,213.2680664     c-3.9277344,8.3339844-9.4814453,15.8320313-16.359375,22.1523438c0.4130859,0.2480469,0.8076172,0.5205078,1.2587891,0.7509766     l0.6669922,0.3525391l0.046875,0.0605469c8.2226563-7.6523438,14.4892578-16.9970703,18.4824219-27.3564453     c-0.4033203,0.4599609-0.8261719,0.9111328-1.2587891,1.34375     C367.0195313,211.5532227,366.0791016,212.418457,365.1308594,213.2680664L365.1308594,213.2680664z"/>
			<path fill-rule="evenodd" clip-rule="evenodd" fill="#FFFFFF" d="M300.0244141,100     c-45.5810547,0-82.5361328,36.9501953-82.5361328,82.5380859c0,45.5854492,36.9550781,82.5454102,82.5361328,82.5454102     c45.5898438,0,82.5449219-36.9599609,82.5449219-82.5454102C382.5693359,136.9501953,345.6142578,100,300.0244141,100     L300.0244141,100z M365.7695313,136.3115234c-4.6708984,3.1660156-9.5185547,5.9614258-14.5078125,8.3974609     c-2.8857422-5.8959961-6.4267578-11.4257813-10.5615234-16.4902344c3.7109375-2.2177734,7.2636719-4.7333984,10.5898438-7.559082     C356.7773438,125.2050781,361.6445313,130.4711914,365.7695313,136.3115234L365.7695313,136.3115234z M349.5419922,119.2431641     c-3.2324219,2.7128906-6.671875,5.1328125-10.2705078,7.2583008c-4.2753906-4.9775391-9.1328125-9.4760742-14.4980469-13.3847656     c1.7949219-1.5761719,3.4580078-3.340332,4.9619141-5.2783203     C336.9042969,110.6948242,343.5566406,114.5546875,349.5419922,119.2431641L349.5419922,119.2431641z M312.5019531,120.2768555     c2.7910156,4.6206055,5.2431641,9.4194336,7.3759766,14.3525391c-6.0693359,1.6162109-12.3554688,2.5136719-18.7265625,2.6025391     v-14.871582C305.0791016,122.25,308.9033203,121.53125,312.5019531,120.2768555L312.5019531,120.2768555z      M301.1513672,120.1640625v-15.6635742c3.7304688,4.3901367,7.1132813,9.0297852,10.1484375,13.8569336     C308.0673828,119.4379883,304.6660156,120.0581055,301.1513672,120.1640625L301.1513672,120.1640625z M303.7539063,104.2329102     c6.2207031,2.3510742,12.0273438,5.3930664,17.3642578,9.0058594c-2.3867188,1.769043-4.9697266,3.2280273-7.7041016,4.3364258     C310.5195313,112.9384766,307.2871094,108.4868164,303.7539063,104.2329102L303.7539063,104.2329102z M301.1513672,139.4262695     c6.671875-0.0869141,13.2490234-1.03125,19.6005859-2.7485352c2.2460938,5.4355469,4.078125,11.0288086,5.5058594,16.7441406     l-0.0087891,0.1079102c-8.1748047,1.862793-16.5751953,2.8398438-25.0976563,2.9150391V139.4262695L301.1513672,139.4262695z      M314.5878906,119.4804688c3.0068359-1.2568359,5.8261719-2.9106445,8.4287109-4.9189453     c5.2900391,3.8007813,10.0917969,8.1884766,14.3105469,13.0512695c-4.8574219,2.6826172-9.9882813,4.8320313-15.296875,6.4082031     C319.8779297,129.0224609,317.3876953,124.1665039,314.5878906,119.4804688L314.5878906,119.4804688z M322.9228516,111.8012695     c-5.4970703-3.7817383-11.4824219-6.9672852-17.890625-9.4428711c7.8740234,0.4833984,15.4472656,2.0693359,22.5410156,4.6582031     C326.1640625,108.7734375,324.5957031,110.3706055,322.9228516,111.8012695L322.9228516,111.8012695z M298.8876953,104.6508789     v15.5058594c-3.4775391-0.1103516-6.8505859-0.7304688-10.0351563-1.7993164     C291.8496094,113.5795898,295.1943359,109.0107422,298.8876953,104.6508789L298.8876953,104.6508789z M286.7470703,117.5820313     c-2.734375-1.1152344-5.3183594-2.5673828-7.7050781-4.3432617c5.328125-3.6010742,11.1162109-6.6264648,17.2988281-8.9780273     C292.8359375,108.5009766,289.6318359,112.9526367,286.7470703,117.5820313L286.7470703,117.5820313z M295.2128906,102.3300781     L295.2128906,102.3300781c-6.4355469,2.4760742-12.4492188,5.6635742-17.984375,9.4570313     c-1.6728516-1.4375-3.2509766-3.0351563-4.6601563-4.7963867     C279.6904297,104.3950195,287.3017578,102.7949219,295.2128906,102.3300781 M300.0244141,262.9125977     c-44.3876953,0-80.3662109-35.9785156-80.3662109-80.3745117c0-33.9248047,21.0195313-62.9379883,50.7490234-74.7324219     c1.5039063,1.9521484,3.1757813,3.7089844,4.9707031,5.2924805c-3.6835938,2.6777344-7.1220703,5.6210938-10.2978516,8.8110352     c1.0146484,0.0048828,2.0009766,0.0541992,3.0253906,0.1787109c2.8183594-2.7060547,5.8349609-5.2148438,9.0478516-7.5263672     c2.5849609,2.015625,5.421875,3.6621094,8.4287109,4.9189453c-1.484375,2.4755859-2.8837891,4.9941406-4.1816406,7.5541992     c0.6210938,0.3828125,1.2128906,0.8222656,1.8320313,1.2451172c1.3730469-2.7177734,2.8574219-5.3793945,4.4267578-7.9960938     c3.5605469,1.2402344,7.328125,1.9521484,11.2285156,2.0766602v14.871582     c-2.2373047-0.0351563-4.4824219-0.1831055-6.6904297-0.40625c0.5449219,0.8032227,0.9677734,1.5693359,1.3623047,2.3583984     c1.7763672,0.1362305,3.5517578,0.2138672,5.328125,0.2421875v28.6323242h2.2636719v-9.4082031     c7.1884766-0.0629883,14.3486328-0.7563477,21.3105469-2.0737305c1.2314453-0.4863281,2.4804688-0.8647461,3.5429688-1.1069336     c0.3291016-0.8969727,0.9960938-1.8837891,2.3203125-2.8798828c-1.4179688-5.6376953-3.2412109-11.1601563-5.4306641-16.5229492     c5.515625-1.6606445,10.8427734-3.9204102,15.8798828-6.7373047c4.1152344,5.0063477,7.6289063,10.4819336,10.4853516,16.3193359     c-2.5839844,1.1977539-5.2148438,2.315918-7.8925781,3.3261719c1.6074219-0.0048828,3.2890625,0.1054688,5.0087891,0.3730469     c1.2861328-0.5444336,2.5644531-1.1176758,3.8242188-1.7099609c0.4511719,0.9536133,0.8730469,1.9121094,1.2675781,2.8823242     c0.9121094,0.2915039,1.8515625,0.6459961,2.78125,1.03125c-0.6386719-1.6396484-1.3242188-3.2602539-2.0576172-4.8505859     c5.1113281-2.4902344,10.0634766-5.3442383,14.828125-8.5717773     c8.4560547,12.7226563,13.3798828,27.9912109,13.3798828,44.4086914     C380.3994141,226.934082,344.4111328,262.9125977,300.0244141,262.9125977"/>
		</g>
	</g>
</svg>