<?xml version="1.0" encoding="utf-8"?>
<!-- Generator: Adobe Illustrator 16.0.3, SVG Export Plug-In . SVG Version: 6.00 Build 0)  -->
<!DOCTYPE svg PUBLIC "-//W3C//DTD SVG 1.1//EN" "http://www.w3.org/Graphics/SVG/1.1/DTD/svg11.dtd">
<svg version="1.1" id="Layer_1" xmlns="http://www.w3.org/2000/svg" xmlns:xlink="http://www.w3.org/1999/xlink" x="0px" y="0px"
	 width="392px" height="469px" viewBox="0 0 392 469" enable-background="new 0 0 392 469" xml:space="preserve">
<path fill="none" d="M485,731c-82,0-164-0.027-246,0.096c-3.424,0.006-4.097-0.672-4.095-4.096c0.108-164,0.108-328,0-492
	c-0.002-3.423,0.67-4.097,4.095-4.095c164,0.108,328,0.108,492,0c3.423-0.002,4.097,0.67,4.095,4.095c-0.108,164-0.108,328,0,492
	c0.002,3.422-0.669,4.102-4.095,4.096C649,730.973,567,731,485,731z M534.668,453.675c4.133-4.333,7.754-7.74,10.928-11.522
	c25.033-29.833,33.807-62.576,17.295-99.605c-1.305-2.927-0.275-4.043,1.889-5.602c16.294-11.739,22.854-30.331,17.549-49.313
	c-5.201-18.607-22.333-31.297-41.258-32.103c-22.312-0.951-40.218,14.827-44.45,31.737c-1.048,4.189-2.713,5.052-6.857,4.42
	c-37.545-5.724-71.359,3.404-101.426,26.384c-3.601,2.751-5.162,2.198-7.906-1.026c-14.492-17.032-37.431-20.888-57.007-9.921
	c-17.893,10.024-26.262,32.923-19.552,53.494c5.384,16.503,21.49,28.854,38.997,29.604c3.582,0.153,4.814,0.988,4.706,4.91
	c-0.467,16.96,4.034,32.635,13.543,46.731c13.911,20.623,33.803,32.571,57.341,39.148c1.496,0.418,3.402,0.106,4.246,1.941
	c-0.587,1.466-1.96,1.86-3.051,2.554c-14.646,9.31-28.714,19.403-41.838,30.781c-8.979,7.783-17.391,16.014-22.819,26.855
	c-7,13.982-4.527,28.943,6.975,40.87c10.039,10.409,23.93,12.386,38.211,5.624c4.887-2.313,9.127-5.523,13.23-8.907
	c3.299-2.721,4.905-2.612,5.815,1.945c1.533,7.683,3.553,15.296,6.781,22.439c1.557,3.444,0.976,4.976-2.365,6.445
	c-9.665,4.254-18.461,9.909-26.446,16.865c-19.599,17.076-21.994,41.996-5.797,61.322c16.027,19.125,44.42,22.141,65.464,6.987
	c18.454-13.288,27.075-31.938,29.408-53.977c0.881-8.317,1.046-8.402,8.979-9.585c18.656-2.782,37.104-6.543,54.397-14.393
	c4.096-1.858,5.943-1.282,8.174,2.716c12.754,22.871,39.936,39.948,68.78,35.973c27.519-3.793,50.607-36.414,38.374-61.072
	c-6.646-13.394-15.498-23.399-30.572-26.088c-11.789-2.103-23.738-3.428-35.783-1.825c-2.463,0.327-4.98,0.891-5.389-3.087
	c-1.156-11.305-3.605-22.365-7.529-33.038c-1.525-4.149-0.266-4.672,3.676-4.354c9.161,0.737,18.325,0.426,27.277-2.032
	c8.448-2.32,15.011-6.963,18.767-15.164c9.75-21.291,1.128-42.012-21.021-50.023c-15.07-5.452-30.774-7.051-46.687-7.104
	C557.066,453.646,546.418,453.675,534.668,453.675z"/>
<path fill-rule="evenodd" clip-rule="evenodd" fill="#059FFF" d="M144.234,208.187c-11.75,0-22.398-0.028-33.047,0.007
	c-15.912,0.053-31.616,1.651-46.687,7.104c-22.149,8.012-30.771,28.732-21.021,50.023c3.756,8.201,10.318,12.844,18.767,15.164
	c8.952,2.458,18.116,2.77,27.277,2.032c3.941-0.317,5.201,0.205,3.676,4.354c-3.924,10.673-6.373,21.733-7.529,33.038
	c-0.408,3.978-2.926,3.414-5.389,3.087c-12.045-1.603-23.994-0.277-35.783,1.825c-15.074,2.688-23.927,12.694-30.572,26.088
	C1.692,375.567,24.781,408.188,52.3,411.981c28.845,3.976,56.026-13.102,68.78-35.973c2.23-3.998,4.078-4.574,8.174-2.716
	c17.294,7.85,35.741,11.61,54.397,14.393c7.934,1.183,8.099,1.268,8.979,9.585c2.332,22.038,10.954,40.688,29.408,53.977
	c21.043,15.153,49.436,12.138,65.463-6.987c16.197-19.326,13.803-44.246-5.797-61.322c-7.984-6.956-16.781-12.611-26.445-16.865
	c-3.342-1.47-3.922-3.001-2.365-6.445c3.229-7.144,5.248-14.757,6.781-22.439c0.909-4.558,2.516-4.666,5.814-1.945
	c4.104,3.384,8.344,6.594,13.23,8.907c14.281,6.762,28.172,4.785,38.211-5.624c11.502-11.927,13.975-26.888,6.975-40.87
	c-5.428-10.842-13.84-19.072-22.818-26.855c-13.124-11.378-27.191-21.472-41.838-30.781c-1.092-0.693-2.465-1.088-3.052-2.554
	c0.843-1.835,2.75-1.523,4.245-1.941c23.539-6.577,43.431-18.525,57.342-39.148c9.509-14.097,14.01-29.771,13.543-46.731
	c-0.107-3.922,1.125-4.757,4.706-4.91c17.507-0.751,33.613-13.102,38.997-29.604c6.711-20.571-1.658-43.47-19.552-53.494
	c-19.577-10.967-42.515-7.111-57.007,9.921c-2.744,3.225-4.307,3.777-7.906,1.026c-30.068-22.979-63.882-32.107-101.427-26.384
	c-4.145,0.632-5.81-0.23-6.857-4.42c-4.232-16.91-22.138-32.688-44.45-31.737c-18.925,0.806-36.057,13.495-41.258,32.103
	c-5.306,18.982,1.255,37.574,17.549,49.313c2.164,1.559,3.193,2.675,1.889,5.602c-16.512,37.029-7.738,69.772,17.295,99.605
	C136.48,200.446,140.102,203.854,144.234,208.187z"/>
</svg>
